<svg version="1.2" xmlns="http://www.w3.org/2000/svg" viewBox="0 0 91 82" width="91" height="82"><defs><clipPath clipPathUnits="userSpaceOnUse" id="cp1"><path d="m-296-4777h2880v9108h-2880z"/></clipPath></defs><style>.a{fill:#69b99d}</style><g clip-path="url(#cp1)"><path fill-rule="evenodd" class="a" d="m80.9 41c0 3.7 3 6.6 6.7 6.6 1.9 0 3.4 1.5 3.4 3.4v12c0 10.2-8.4 18.5-18.6 18.5h-52.8c-10.2 0-18.6-8.3-18.6-18.5v-12c0-1.9 1.5-3.4 3.4-3.4 3.7 0 6.7-2.9 6.7-6.6 0-3.6-2.9-6.2-6.7-6.2-0.9 0-1.8-0.4-2.4-1-0.6-0.7-1-1.5-1-2.4v-12.4c0-10.2 8.4-18.5 18.6-18.5h52.8c10.2 0 18.6 8.3 18.6 18.5v12c0 0.9-0.4 1.8-1 2.4-0.6 0.6-1.5 1-2.4 1-3.7 0-6.7 2.9-6.7 6.6zm-24.8 2.9l5.3-5.1c1-0.9 1.3-2.2 0.9-3.4-0.4-1.2-1.5-2.1-2.7-2.2l-7.3-1.1-3.3-6.6c-0.6-1.1-1.7-1.8-3-1.8-1.3 0-2.4 0.7-3 1.8l-3.3 6.6-7.3 1.1c-1.2 0.1-2.3 1-2.7 2.2-0.4 1.2-0.1 2.5 0.9 3.4l5.3 5.1-1.3 7.3c-0.2 1.2 0.3 2.4 1.3 3.2 0.6 0.4 1.3 0.6 2 0.6q0.8 0 1.5-0.4l6.6-3.4 6.5 3.4c1.2 0.6 2.5 0.5 3.6-0.2 1-0.8 1.5-2 1.3-3.2z"/></g></svg>