<svg version="1.2" xmlns="http://www.w3.org/2000/svg" viewBox="0 0 91 91" width="91" height="91"><defs><clipPath clipPathUnits="userSpaceOnUse" id="cp1"><path d="m-1928-4772h2880v9108h-2880z"/></clipPath></defs><style>.a{fill:#69b99d}</style><g clip-path="url(#cp1)"><path class="a" d="m47.5 1.9c0.7-0.6 1.6-0.9 2.6-0.9 20.6 0.6 37.8 15.6 40.9 35.5q0 0.2 0 0.4c0.1 0.9-0.3 1.8-0.9 2.6-0.6 0.7-1.5 1.1-2.5 1.2l-34.6 2.2c-1.1 0.1-2.2-0.2-3.1-1-0.8-0.8-1.3-1.8-1.3-3l-2.3-33.9v-0.6c0-0.9 0.4-1.8 1.2-2.5zm-2.4 49.9l30-1.9 0.2 0.1c1.2 0 2.5 0.5 3.4 1.4 0.9 0.9 1.3 2.2 1.3 3.4-1.2 17.2-13.8 31.6-30.9 35.3-17.2 3.7-34.8-4.2-43.2-19.3-2.5-4.3-4-9.1-4.6-14.1q-0.3-2.2-0.3-4.4c0.1-18.3 13.1-34.1 31.3-38 2.2-0.4 4.4 0.7 5.4 2.7q0.3 0.5 0.6 1.2 0.5 7.9 1 15.7 0.4 6.1 0.8 12.2 0 1.5 0.5 2.9c0.7 1.8 2.5 2.9 4.5 2.8z"/></g></svg>