<svg version="1.2" xmlns="http://www.w3.org/2000/svg" viewBox="0 0 91 86" width="91" height="86"><defs><clipPath clipPathUnits="userSpaceOnUse" id="cp1"><path d="m-296-4175h2880v9108h-2880z"/></clipPath></defs><style>.a{fill:#69b99d}</style><g clip-path="url(#cp1)"><path fill-rule="evenodd" class="a" d="m63.3 0.3c2.9 0 5.7 0.4 8.4 1.3 16.6 5.4 22.6 23.6 17.6 39.5-2.8 8.2-7.5 15.6-13.6 21.7-8.6 8.4-18.2 15.8-28.4 22.3l-1.2 0.7-1.1-0.8c-10.3-6.4-19.9-13.8-28.7-22.3-6-6.1-10.7-13.4-13.5-21.6-5.1-15.9 0.9-34.1 17.6-39.6q2-0.7 4-1h0.6q1.9-0.3 3.8-0.2h0.5q4.2 0.1 8.2 1.4h0.3q0.2 0.2 0.4 0.3c1 0.3 1.9 0.7 2.8 1.2l1.7 0.7c0.4 0.3 0.9 0.6 1.3 0.9q0.4 0.3 0.6 0.4 0.2 0.1 0.3 0.2c0.4 0.2 0.8 0.4 1.1 0.7 5-3.8 11.1-5.9 17.3-5.8zm12 32.4c1.8-0.1 3.4-1.6 3.5-3.5v-0.5c0.2-6.3-3.6-12-9.4-14.2-1.9-0.7-3.9 0.3-4.6 2.2-0.6 1.9 0.4 4 2.3 4.7 2.8 1 4.8 3.9 4.8 7v0.2c-0.1 1 0.2 2 0.8 2.7 0.7 0.8 1.6 1.3 2.6 1.4z"/></g></svg>