<svg version="1.2" xmlns="http://www.w3.org/2000/svg" viewBox="0 0 78 91" width="78" height="91"><defs><clipPath clipPathUnits="userSpaceOnUse" id="cp1"><path d="m-1119-4772h2880v9108h-2880z"/></clipPath></defs><style>.a{fill:#69b99d}</style><g clip-path="url(#cp1)"><path fill-rule="evenodd" class="a" d="m0.7 38.4c0-20.7 17.3-37.4 38.3-37.4 21 0 38.2 16.7 38.2 37.4 0 10.5-3.7 20.1-10 28.4-6.9 9-15.4 16.9-24.9 23.1-2.2 1.4-4.2 1.5-6.6 0-9.6-6.2-18.1-14.1-24.9-23.1-6.3-8.3-10.1-17.9-10.1-28.4zm25.7 1.2c0 6.9 5.6 12.4 12.6 12.4 6.9 0 12.6-5.5 12.6-12.4 0-6.9-5.7-12.6-12.6-12.6-7 0-12.6 5.7-12.6 12.6z"/></g></svg>