<svg version="1.2" xmlns="http://www.w3.org/2000/svg" viewBox="0 0 78 91" width="78" height="91"><defs><clipPath clipPathUnits="userSpaceOnUse" id="cp1"><path d="m-1119-4172h2880v9108h-2880z"/></clipPath></defs><style>.a{fill:#69b99d}</style><g clip-path="url(#cp1)"><path fill-rule="evenodd" class="a" d="m21.6 82.2c-4.6-2.4-8.2-5-11-8.1-6.2-6.9-9.6-15.6-9.7-24.7l-0.1-29.8c-0.1-3.5 2.2-6.6 5.5-7.7l29.7-10.4c1.8-0.6 3.8-0.7 5.6-0.1l29.8 10.1c3.4 1.1 5.6 4.2 5.7 7.6l0.1 29.9c0.1 9-3.2 17.8-9.2 24.7-2.8 3.2-6.4 5.9-10.9 8.3l-16.1 8.6q-0.8 0.4-1.6 0.4-0.9 0-1.6-0.4zm11.9-26.7c0.7 0.6 1.6 0.9 2.4 0.9 0.9 0 1.8-0.3 2.4-1l17.6-17.3c1.3-1.3 1.3-3.3 0-4.6-1.4-1.3-3.5-1.3-4.9 0l-15.1 14.9-6.2-5.9c-1.4-1.3-3.5-1.3-4.8 0-1.3 1.3-1.3 3.4 0 4.7z"/></g></svg>