<svg version="1.2" xmlns="http://www.w3.org/2000/svg" viewBox="0 0 92 86" width="92" height="86"><defs><clipPath clipPathUnits="userSpaceOnUse" id="cp1"><path d="m-1928-4175h2880v9108h-2880z"/></clipPath></defs><style>.a{fill:#69b99d}</style><g clip-path="url(#cp1)"><path class="a" d="m72.6 53.4c-1.1 1.2-1.7 2.8-1.4 4.4l4 22.1c0.3 1.9-0.5 3.8-2 4.9-1.6 1.1-3.6 1.3-5.3 0.4l-19.9-10.4q-1.1-0.6-2.3-0.6h-1.2q-0.6 0.1-1.2 0.4l-19.9 10.4c-1 0.5-2.1 0.7-3.2 0.5-2.7-0.5-4.5-3-4-5.7l4-22.1c0.2-1.6-0.3-3.3-1.5-4.4l-16.2-15.8c-1.4-1.3-1.9-3.3-1.2-5.1 0.6-1.8 2.1-3.1 4-3.3l22.3-3.3c1.7-0.2 3.2-1.2 4-2.7l9.8-20.2q0.4-0.7 0.9-1.3l0.5-0.3q0.3-0.3 0.7-0.6l0.5-0.1 0.7-0.3h1.9c1.7 0.1 3.2 1.1 4 2.7l10 20.1c0.7 1.4 2.1 2.5 3.7 2.7l22.4 3.3c1.9 0.2 3.4 1.5 4.1 3.3 0.6 1.8 0 3.8-1.3 5.1z"/></g></svg>